<svg xmlns="http://www.w3.org/2000/svg" viewBox="0 0 400 300" width="400" height="300">
  <defs>
    <linearGradient id="cpBg" x1="0%" y1="0%" x2="100%" y2="100%">
      <stop offset="0%" stop-color="#fdf8f6"/>
      <stop offset="100%" stop-color="#f4f7f4"/>
    </linearGradient>
  </defs>
  <rect width="400" height="300" rx="12" fill="url(#cpBg)"/>
  <!-- table -->
  <rect x="100" y="180" width="200" height="8" rx="4" fill="#c9d7ca" opacity="0.5"/>
  <rect x="140" y="188" width="6" height="60" rx="3" fill="#a3baa5" opacity="0.4"/>
  <rect x="254" y="188" width="6" height="60" rx="3" fill="#a3baa5" opacity="0.4"/>
  <!-- person 1 (left) -->
  <circle cx="160" cy="120" r="22" fill="#e9bea5" opacity="0.6"/>
  <rect x="145" y="145" width="30" height="40" rx="10" fill="#c2674a" opacity="0.35"/>
  <!-- person 2 (right) -->
  <circle cx="240" cy="120" r="22" fill="#c9d7ca" opacity="0.6"/>
  <rect x="225" y="145" width="30" height="40" rx="10" fill="#5a7d5d" opacity="0.35"/>
  <!-- clipboard on table -->
  <rect x="180" y="160" width="40" height="24" rx="3" fill="#fefdfb" stroke="#c2674a" stroke-width="1" opacity="0.6"/>
  <line x1="186" y1="168" x2="214" y2="168" stroke="#c2674a" stroke-width="1" opacity="0.3"/>
  <line x1="186" y1="174" x2="206" y2="174" stroke="#c2674a" stroke-width="1" opacity="0.3"/>
  <!-- hearts -->
  <path d="M195 90 C195 85 200 82 200 87 C200 82 205 85 205 90 C205 95 200 100 200 100 C200 100 195 95 195 90Z" fill="#c2674a" opacity="0.25"/>
</svg>
